"Al-Yawm al-Sadis" / "The Sixth Day" / "Le sixieme jour"
Comedy, Drama
Director: Youssef Chahine 
Writers: Youssef Chahine (screenplay), Andree Chedid (novel)

Cast:
Dalida - Saddika 
Mohsen Mohieddin - Okka 
Chewikar - Chahat 
Hamdy Ahmed - Said 
Salah El-Saadany - Chabat 
Mohamed Mounir - Dessouki 
Youssef Chahine - Rafah 
-----------------------------------------------------------------------------

* Spoken language: Arabic
* Texted languages (.srt files): the English and Russian adaptations of French subtitles.

-----------------------------------------------------------------------------
English subtitles: charset - Western Europe(ISO8859-1)
Russian subtitles: charset - Cyrillic(Windows-1251)


Chahine Youssef - The Sixth Day (1986).avi
Chahine_Youssef_-_The_Sixth_Day_1986_Eng.srt
Chahine_Youssef_-_The_Sixth_Day_1986_Rus.srt

-----------------------------------------------------------------------------
Media Info:

Format                           : AVI
Format/Info                      : Audio Video Interleave
File size                        : 1.17 GiB
Duration                         : 1h 42mn
Overall bit rate                 : 1 633 Kbps
Writing application              : VirtualDubMod 1.5.10.2 (build 2540/release)
Writing library                  : VirtualDubMod build 2540/release

Video
ID                               : 0
Format                           : MPEG-4 Visual
Format profile                   : Advanced Simple@L5
Format settings, BVOP            : 1
Format settings, QPel            : No
Format settings, GMC             : No warppoints
Format settings, Matrix          : Default (MPEG)
Codec ID                         : XVID
Codec ID/Hint                    : XviD
Duration                         : 1h 42mn
Bit rate                         : 1 495 Kbps
Width                            : 640 pixels
Height                           : 400 pixels
Display aspect ratio             : 1.600
Frame rate                       : 25.000 fps
Color space                      : YUV
Chroma subsampling               : 4:2:0
Bit depth                        : 8 bits
Scan type                        : Progressive
Compression mode                 : Lossy
Bits/(Pixel*Frame)               : 0.234
Stream size                      : 1.07 GiB (92%)
Writing library                  : XviD 1.0.1 (UTC 2004-06-05)

Audio
ID                               : 1
Format                           : MPEG Audio
Format version                   : Version 1
Format profile                   : Layer 3
Mode                             : Joint stereo
Mode extension                   : MS Stereo
Codec ID                         : 55
Codec ID/Hint                    : MP3
Duration                         : 1h 42mn
Bit rate mode                    : Constant
Bit rate                         : 128 Kbps
Channel(s)                       : 2 channels
Sampling rate                    : 48.0 KHz
Compression mode                 : Lossy
Stream size                      : 93.5 MiB (8%)
Alignment                        : Aligned on interleaves
Interleave, duration             : 40 ms (1.00 video frame)
Interleave, preload duration     : 504 ms

-----------------------------------------------------------------------------